<svg width="59" height="60" viewBox="0 0 59 60" fill="none" xmlns="http://www.w3.org/2000/svg">
<path d="M57.1743 59.0015H32.6594C31.6516 59.0015 30.8342 58.1842 30.8342 57.1755V26.2949C30.8342 25.2856 31.6515 24.4689 32.6594 24.4689H57.1743C58.1827 24.4689 59 25.2862 59 26.2949V57.1743C59.0009 58.1836 58.1832 59.0008 57.1743 59.0008V59.0015ZM34.4837 55.3493H55.3477V28.1208H34.4837V55.3493Z" fill="url(#paint0_linear_8_833)"/>
<path d="M57.1743 20.1358H32.6594C31.6516 20.1358 30.8342 19.3185 30.8342 18.3101V1.82604C30.8342 0.816773 31.6515 0 32.6594 0H57.1743C58.1827 0 59 0.817288 59 1.82604V18.3113C59.0009 19.3192 58.1832 20.136 57.1743 20.136V20.1358ZM34.4837 16.4845H55.3477V3.6502H34.4837V16.4845Z" fill="url(#paint1_linear_8_833)"/>
<path d="M24.6754 31.7403H1.82569C0.817334 31.7403 0 30.923 0 29.9146V1.82604C0 0.816773 0.817287 0 1.82569 0H24.6754C25.6838 0 26.5011 0.817288 26.5011 1.82604V29.9158C26.5007 30.9232 25.6838 31.7405 24.6751 31.7405L24.6754 31.7403ZM3.64997 28.089H22.8488V3.6502H3.64997V28.089Z" fill="url(#paint2_linear_8_833)"/>
<path d="M24.6754 59.0015H1.82569C0.817334 59.0015 0 58.1842 0 57.1755V37.8994C0 36.8911 0.817287 36.0737 1.82569 36.0737H24.6754C25.6838 36.0737 26.5011 36.891 26.5011 37.8994V57.1755C26.5007 58.1838 25.6838 59.0012 24.6751 59.0012L24.6754 59.0015ZM3.64997 55.3493H22.8488V39.7253H3.64997V55.3493Z" fill="url(#paint3_linear_8_833)"/>
<defs>
<linearGradient id="paint0_linear_8_833" x1="44.9171" y1="24.4689" x2="44.9171" y2="59.0015" gradientUnits="userSpaceOnUse">
<stop stop-color="#D75269"/>
<stop offset="1" stop-color="#F29273"/>
</linearGradient>
<linearGradient id="paint1_linear_8_833" x1="44.9171" y1="0" x2="44.9171" y2="20.136" gradientUnits="userSpaceOnUse">
<stop stop-color="#D75269"/>
<stop offset="1" stop-color="#F29273"/>
</linearGradient>
<linearGradient id="paint2_linear_8_833" x1="13.2506" y1="0" x2="13.2506" y2="31.7405" gradientUnits="userSpaceOnUse">
<stop stop-color="#D75269"/>
<stop offset="1" stop-color="#F29273"/>
</linearGradient>
<linearGradient id="paint3_linear_8_833" x1="13.2506" y1="36.0737" x2="13.2506" y2="59.0015" gradientUnits="userSpaceOnUse">
<stop stop-color="#D75269"/>
<stop offset="1" stop-color="#F29273"/>
</linearGradient>
</defs>
</svg>
