<svg width="12" height="20" viewBox="0 0 12 20" fill="none" xmlns="http://www.w3.org/2000/svg">
<path d="M10.2373 0.706436C10.3793 0.570665 10.5703 0.49554 10.7691 0.500205L10.973 0.504991L11.0129 0.545941C11.2124 0.619413 11.3751 0.776698 11.4525 0.982692L10.2373 0.706436ZM10.2373 0.706436L2.50858 8.00912C2.3565 8.13754 2.26135 8.32228 2.24654 8.52276M10.2373 0.706436L2.74518 8.55961M2.24654 8.52276L2.74518 8.55961M2.24654 8.52276C2.24654 8.52274 2.24654 8.52272 2.24654 8.5227L2.74518 8.55961M2.24654 8.52276C2.23764 8.64312 2.25821 8.76262 2.30498 8.87144M2.74518 8.55961C2.74008 8.62851 2.7644 8.69638 2.81221 8.74622M2.30498 8.87144C2.3704 8.90478 2.43095 8.94786 2.4844 8.99963L2.51538 9.02889L2.81221 8.74622M2.30498 8.87144C2.22467 8.83051 2.13701 8.80426 2.0461 8.79463L1.49649 8.73641L1.49529 8.95441M2.30498 8.87144C2.3341 8.93918 2.37337 9.00279 2.42202 9.05988L2.20185 9.293L1.99345 9.29185L2.05806 8.79622C2.05407 8.79569 2.05008 8.79521 2.04609 8.79475C1.84387 8.77169 1.64677 8.83252 1.49529 8.95441M2.81221 8.74622L2.51644 9.02989M2.81221 8.74622L2.51644 9.02989M2.51644 9.02989L2.79956 9.29728M2.51644 9.02989L2.99575 8.82158C3.04784 8.81991 3.0976 8.8017 3.1381 8.77024C3.15052 8.76059 3.16207 8.7497 3.17255 8.73766C3.17322 8.73689 3.17388 8.73611 3.17454 8.73533M2.79956 9.29728C2.86777 9.3152 2.93878 9.32348 3.01052 9.32136L3.01176 9.32133C3.21007 9.31497 3.39743 9.22978 3.53243 9.08509M2.79956 9.29728C2.66827 9.26279 2.54733 9.19262 2.45135 9.09232L2.4513 9.09227C2.44331 9.08393 2.43554 9.07544 2.42798 9.06679L2.2047 9.29301L2.49342 9.29461L2.49342 9.29478L2.49129 9.68105L10.9216 17.6431M2.79956 9.29728L11.2608 17.2885L11.2615 17.2891C11.559 17.5711 11.573 18.0403 11.2929 18.3395C11.0126 18.639 10.5434 18.6553 10.2428 18.3774L10.2428 18.3774L10.2389 18.3738L1.46591 10.0881M3.53243 9.08509L3.51774 9.09895L3.18468 8.74608L3.18247 8.74816L3.16477 8.76489L3.14553 8.77981C3.15844 8.7698 3.17027 8.75864 3.18091 8.74651C3.18159 8.74575 3.18225 8.74498 3.18291 8.74421L3.17454 8.73533M3.53243 9.08509C3.54041 9.07653 3.54821 9.06777 3.55581 9.0588L3.18587 8.74495L10.9234 1.43386L11.2485 1.80178C11.2511 1.79947 11.2537 1.79715 11.2562 1.79481M3.53243 9.08509L11.2562 1.79481M3.17454 8.73533L3.2148 8.69733C3.20616 8.71367 3.19577 8.72905 3.18379 8.74318L3.17454 8.73533ZM11.2562 1.79481L11.2606 1.79067L10.9237 1.43366L11.4526 0.982971C11.56 1.26911 11.481 1.5906 11.2562 1.79481ZM1.46591 10.0881C1.22506 9.87282 1.15073 9.52637 1.28241 9.23088L1.2827 9.23024C1.33198 9.12007 1.40564 9.02655 1.49529 8.95441M1.46591 10.0881L1.4596 10.0822L1.7965 9.72544L1.79488 9.72391L1.7948 9.724L1.78697 9.71626C1.78958 9.71884 1.79225 9.72136 1.79496 9.72382C1.79551 9.72432 1.79606 9.72482 1.79662 9.72531L1.80291 9.71865M1.46591 10.0881C1.46963 10.0914 1.47339 10.0947 1.47718 10.098L1.79682 9.72574L10.5736 18.0149M1.49529 8.95441L1.49344 9.28908L1.49344 9.28926L1.93277 9.29169C1.84906 9.30171 1.77474 9.35477 1.73912 9.4344C1.697 9.52891 1.7191 9.63907 1.79324 9.7099C1.79584 9.71238 1.7985 9.71481 1.80122 9.71719C1.80178 9.71768 1.80234 9.71817 1.80291 9.71865M1.80291 9.71865L1.84717 9.76046C1.82918 9.75092 1.81231 9.73924 1.79694 9.7256L1.80291 9.71865ZM10.5736 18.0149C10.5565 17.9987 10.5421 17.9806 10.5305 17.9614L10.58 18.0081L10.5736 18.0149ZM10.5736 18.0149L10.5742 18.0155L10.5806 18.0087L10.5822 18.0103C10.6812 18.1018 10.8357 18.0963 10.9279 17.9978C11.0196 17.8999 11.0156 17.7466 10.9191 17.6535L10.9256 17.6467L10.924 17.6452L10.9239 17.6452L10.9216 17.6431M10.9216 17.6431L10.9153 17.6499L10.8675 17.6047C10.8867 17.6149 10.9049 17.6277 10.9216 17.6431Z" fill="white" stroke="white"/>
</svg>
