<svg width="130" height="30" viewBox="0 0 130 30" fill="none" xmlns="http://www.w3.org/2000/svg">
<path d="M129.046 12.7685C129.046 5.27205 123.823 0 116.501 0C107.18 0 100.933 6.77218 100.933 16.4429C100.933 23.9895 106.206 29.2114 113.652 29.2114C120.424 29.2114 125.472 25.9382 127.546 20.7149H120.025C119.025 22.3404 116.901 23.3641 114.303 23.3641C110.304 23.3641 107.805 20.7149 107.579 16.9667H128.622C128.896 15.5431 129.046 14.3188 129.046 12.7685ZM108.155 11.8938C108.829 8.44642 112.179 5.69687 116.226 5.69687C119.725 5.69687 122.373 8.24584 122.373 11.8952H108.155V11.8938ZM80.7163 28.5359L82.066 21.3403C86.1889 22.1649 86.8143 19.8402 87.8882 14.2436L88.4134 11.469C89.9121 3.64795 92.936 -0.250718 101.583 0.799512L100.232 7.99652C96.109 7.17193 95.3847 10.2948 94.4612 15.142L93.9361 17.9166C92.436 25.8379 89.3118 29.5861 80.7177 28.5373L80.7163 28.5359ZM70.6207 28.5624L75.7187 0.674153H82.4407L77.3678 28.5624H70.6207ZM32.1118 0.674153H38.6347L40.7588 20.8403L49.3055 0.674153H55.7768L58.0528 21.0408L66.2986 0.674153H72.7964L60.9764 28.5624H53.5802L51.1789 9.36989L43.0097 28.5638H35.8628L32.1118 0.674153Z" fill="white"/>
<path d="M7.7458 8.07099L0 15.4672H13.1683L14.543 12.2454H7.87116L12.0442 8.07099L9.62061 3.89793H20.9405L10.4939 28.563H14.4177L26.2377 0.674805H3.39862L7.7458 8.07099Z" fill="white"/>
</svg>
