<svg width="208" height="48" viewBox="0 0 208 48" fill="none" xmlns="http://www.w3.org/2000/svg">
<path d="M29.2702 19.1066C29.2702 19.1066 32.1349 16.6099 32.1349 11.1174V8.74563C32.1349 5.12553 28.0246 -0.741515 21.2988 1.38061L5.48088 6.37384V35.709L9.96473 34.336V27.0958L24.1636 22.6018C26.7791 21.728 29.0211 23.8501 29.0211 26.222V29.093C29.0211 31.9642 26.4056 36.0836 22.4199 37.3319L0.747925 44.1975L5.10722 47.4432L24.7864 41.2016C28.8965 39.8285 33.5049 36.3332 33.5049 28.7185V25.8475C33.5049 21.3536 29.2702 19.1066 29.2702 19.1066ZM22.669 18.4824L9.96473 22.477V9.61944L22.669 5.62486C25.2845 4.75103 27.6509 6.87315 27.6509 9.12012V11.2422C27.6509 14.8624 25.7828 17.4837 22.669 18.4824Z" fill="#747474"/>
<path d="M28.0241 29.0936V26.2224C28.0241 24.5997 26.5295 23.1017 24.5366 23.7259L23.5401 24.1003V28.0949C23.5401 30.0923 22.2946 31.7149 20.4265 32.3391L4.48385 37.2075V6.2495L0 3.00391V43.1995L22.1702 36.2088C25.6575 35.2103 28.0241 31.5902 28.0241 29.0936Z" fill="#747474"/>
<path fill-rule="evenodd" clip-rule="evenodd" d="M58.414 37.8315C56.0475 37.8315 54.1792 37.0826 52.8091 35.5846V37.457H48.5743V10.7433L52.8091 9.37012V19.9807C54.1792 18.4828 56.0475 17.8586 58.414 17.8586C61.1541 17.8586 63.5205 18.8573 65.2642 20.7298C67.1325 22.727 68.0044 25.0988 68.0044 27.8451C68.0044 30.5913 67.1325 32.9631 65.2642 34.9605C63.5205 36.9577 61.1541 37.8315 58.414 37.8315ZM57.9158 33.9618C59.5349 33.9618 60.905 33.3376 62.0259 32.2142C63.1469 30.9659 63.6452 29.5926 63.6452 27.8451C63.6452 26.0975 63.1469 24.7242 62.0259 23.4759C60.905 22.2278 59.5349 21.7283 57.9158 21.7283C55.6738 21.7283 54.0546 22.6021 52.8091 24.3499V31.3404C54.0546 33.088 55.6738 33.9618 57.9158 33.9618Z" fill="#747474"/>
<path fill-rule="evenodd" clip-rule="evenodd" d="M74.1065 14.738C73.3591 14.738 72.7364 14.4883 72.1136 13.8642C71.6155 13.3647 71.2418 12.6158 71.2418 11.8668C71.2418 11.1179 71.4908 10.4937 72.1136 9.86956C72.6119 9.37023 73.3591 8.99573 74.1065 8.99573C74.8537 8.99573 75.6011 9.24539 76.0993 9.86956C76.5976 10.3689 76.9711 11.1179 76.9711 11.8668C76.9711 12.6158 76.722 13.3647 76.0993 13.8642C75.6011 14.4883 74.8537 14.738 74.1065 14.738ZM71.9891 37.4571H76.2239V18.2331H71.9891V37.4571Z" fill="#747474"/>
<path fill-rule="evenodd" clip-rule="evenodd" d="M90.6723 37.7075C88.6796 37.7075 87.0603 37.208 85.8148 36.0846C84.5693 34.9612 83.9465 33.4632 83.9465 31.3411V22.1036H79.2136V18.3586H83.9465V14.1143L88.1812 12.7413V18.3586H94.0352V22.1036H88.1812V30.7169C88.1812 32.9638 89.1777 33.9625 91.1704 33.9625C92.1669 33.9625 93.1634 33.7129 93.9106 33.2136L95.1561 36.7088C93.9106 37.3329 92.2915 37.7075 90.6723 37.7075Z" fill="#747474"/>
<path fill-rule="evenodd" clip-rule="evenodd" d="M98.0216 46.3207V18.2337H102.256V19.9814C103.627 18.4835 105.495 17.8593 107.861 17.8593C110.601 17.8593 112.968 18.8578 114.711 20.7303C116.58 22.7277 117.452 25.0995 117.452 27.8457C117.452 30.592 116.58 32.9638 114.711 34.961C112.843 36.9584 110.601 37.8322 107.861 37.8322C105.495 37.8322 103.627 37.0831 102.256 35.5852V44.8227L98.0216 46.3207ZM107.363 33.9625C108.982 33.9625 110.352 33.3383 111.473 32.2147C112.594 30.9666 113.092 29.5933 113.092 27.8457C113.092 26.0982 112.594 24.7249 111.473 23.4766C110.352 22.2283 108.982 21.729 107.363 21.729C105.121 21.729 103.377 22.6028 102.256 24.3504V31.3409C103.377 33.0887 105.121 33.9625 107.363 33.9625Z" fill="#747474"/>
<path fill-rule="evenodd" clip-rule="evenodd" d="M129.658 37.8322C126.918 37.8322 124.551 36.8335 122.808 34.961C121.064 32.9638 120.067 30.592 120.067 27.8457C120.067 25.0995 120.939 22.7277 122.808 20.7303C124.551 18.7331 126.918 17.8593 129.658 17.8593C132.024 17.8593 133.893 18.6082 135.263 19.9814V18.2337H139.497V37.4577H135.263V35.5852C133.893 37.0831 132.024 37.8322 129.658 37.8322ZM130.156 33.9625C132.398 33.9625 134.017 33.0887 135.263 31.2162V24.2257C134.017 22.4779 132.274 21.6041 130.156 21.6041C128.537 21.6041 127.167 22.2283 126.046 23.3519C124.925 24.6 124.427 25.9733 124.427 27.7208C124.427 29.4684 124.925 30.8417 126.046 32.09C127.167 33.3383 128.537 33.9625 130.156 33.9625Z" fill="#747474"/>
<path fill-rule="evenodd" clip-rule="evenodd" d="M144.105 37.4577V18.2337H148.34V20.2311C149.71 18.6082 151.578 17.8593 153.945 17.8593C156.187 17.8593 158.055 18.6082 159.425 20.1062C160.795 21.6041 161.542 23.6015 161.542 25.9733V37.4577H157.308V26.5974C157.308 24.9746 156.934 23.8511 156.187 22.9773C155.439 22.1036 154.443 21.729 153.073 21.729C150.831 21.729 149.212 22.7277 148.34 24.7249V37.4577H144.105Z" fill="#747474"/>
<path fill-rule="evenodd" clip-rule="evenodd" d="M174.745 37.8322C172.005 37.8322 169.638 36.8335 167.895 34.961C166.151 32.9638 165.154 30.5921 165.154 27.8458C165.154 25.0995 166.026 22.7276 167.895 20.7303C169.638 18.7331 172.005 17.8592 174.745 17.8592C177.112 17.8592 178.979 18.6082 180.35 19.9813V10.619L184.584 9.24591V37.3328H180.35V35.4605C178.979 37.0831 177.112 37.8322 174.745 37.8322ZM175.243 33.9623C177.486 33.9623 179.104 33.0885 180.35 31.216V24.2255C179.104 22.4779 177.361 21.6041 175.243 21.6041C173.624 21.6041 172.254 22.2283 171.133 23.3517C170.012 24.6 169.514 25.9733 169.514 27.7209C169.514 29.4685 170.012 30.8417 171.133 32.09C172.254 33.3382 173.624 33.9623 175.243 33.9623Z" fill="#747474"/>
<path fill-rule="evenodd" clip-rule="evenodd" d="M198.161 37.8322C195.421 37.8322 193.054 36.8335 191.311 34.961C189.567 32.9638 188.571 30.592 188.571 27.8457C188.571 25.0995 189.442 22.7277 191.311 20.7303C193.054 18.7331 195.421 17.8593 198.161 17.8593C200.528 17.8593 202.396 18.6082 203.766 19.9814V18.2337H208V37.4577H203.766V35.5852C202.396 37.0831 200.528 37.8322 198.161 37.8322ZM198.659 33.9625C200.902 33.9625 202.52 33.0887 203.766 31.2162V24.2257C202.52 22.4779 200.776 21.6041 198.659 21.6041C197.039 21.6041 195.67 22.2283 194.549 23.3519C193.428 24.6 192.931 25.9733 192.931 27.7208C192.931 29.4684 193.428 30.8417 194.549 32.09C195.67 33.3383 197.039 33.9625 198.659 33.9625Z" fill="#747474"/>
</svg>
