<svg width="175" height="38" viewBox="0 0 175 38" fill="none" xmlns="http://www.w3.org/2000/svg">
<path fill-rule="evenodd" clip-rule="evenodd" d="M46.9271 6.86304H49.8112V15.2959C51.0034 13.4639 52.585 12.5622 54.526 12.5622C57.1607 12.5622 58.6588 14.0748 58.6588 17.1281V27.4523H55.7739V17.913C55.7739 15.8187 55.0253 15.2376 53.5828 15.2376C52.6952 15.2376 51.8354 15.7894 51.0313 16.895C50.2272 18.0004 49.8112 19.4537 49.8112 21.2575V27.4513H46.9271V6.86304Z" fill="#747474"/>
<path fill-rule="evenodd" clip-rule="evenodd" d="M62.919 18.4617H70.0998C69.8355 16.6799 68.6049 15.3534 66.5237 15.3534C64.5607 15.3506 63.2705 16.6232 62.919 18.4617ZM73.3237 20.9217H62.8604C62.8604 23.1558 64.2084 24.8527 66.5237 24.8527C68.1652 24.8527 69.6593 23.9477 70.3925 22.4493L73.0004 23.4365C71.5055 26.2368 69.7796 27.4527 66.5237 27.4527C61.6591 27.4527 59.6366 23.4933 59.6366 20.0999C59.6366 16.7064 61.6591 12.7461 66.5237 12.7461C71.2424 12.7461 73.3237 16.4514 73.3237 19.6473V20.9217Z" fill="#747474"/>
<path fill-rule="evenodd" clip-rule="evenodd" d="M93.1745 19.973C93.1745 21.4394 93.527 22.6167 94.2317 23.5045C94.9363 24.3668 95.8465 24.7981 96.9617 24.7981C98.077 24.7981 98.987 24.3668 99.6917 23.5045C100.396 22.6137 100.749 21.4366 100.749 19.973C100.749 18.5066 100.397 17.3283 99.6917 16.4657C98.9876 15.5746 98.0786 15.1433 96.9617 15.1433C95.8449 15.1433 94.9367 15.5746 94.2317 16.4657C93.5276 17.3283 93.1745 18.5066 93.1745 19.973ZM96.6096 12.4976C97.3433 12.4976 98.0776 12.6993 98.8699 13.0727C99.6624 13.4464 100.22 13.8488 100.578 14.3376V6.86304H103.631V27.2154H100.578V25.5509C100.015 26.4997 98.3413 27.4523 96.5489 27.4523C92.2343 27.4523 89.9435 24.6931 89.9435 19.9778C89.9455 15.371 92.2645 12.4976 96.6096 12.4976Z" fill="#747474"/>
<path fill-rule="evenodd" clip-rule="evenodd" d="M114.578 15.0086L112.661 16.6496C111.963 15.7729 111.12 15.3487 110.103 15.3487C109.289 15.3487 108.65 15.8571 108.65 16.7621C108.648 17.0917 108.784 17.408 109.026 17.6388C109.52 18.1196 110.014 18.3464 111.264 18.799C112.281 19.1646 112.716 19.308 113.531 19.8455C114.693 20.524 115.245 21.3722 115.362 22.9283C115.385 24.1462 114.878 25.3172 113.967 26.1518C113.037 27.0283 111.816 27.4527 110.276 27.4527C107.486 27.4527 105.509 25.699 104.609 23.6348L107.167 22.2774C107.952 24.0024 109.026 24.8509 110.393 24.8509C111.701 24.8509 112.366 24.2293 112.366 22.9841C112.366 22.5043 112.163 22.1613 111.614 21.8532C111.38 21.6949 111.128 21.562 110.863 21.4574C110.427 21.259 109.352 20.8916 108.89 20.6939C106.797 19.8455 105.751 18.5445 105.752 16.7904C105.734 15.7035 106.201 14.6624 107.03 13.9344C107.872 13.1422 108.948 12.7461 110.256 12.7461C111.996 12.7458 113.619 13.5958 114.578 15.0086Z" fill="#747474"/>
<path fill-rule="evenodd" clip-rule="evenodd" d="M127.773 20.226C127.773 18.7595 127.421 17.5811 126.716 16.7188C126.011 15.8274 125.102 15.3964 123.984 15.3964C122.866 15.3964 121.958 15.8274 121.253 16.7188C120.548 17.5811 120.196 18.7631 120.196 20.226C120.196 21.6885 120.548 22.8706 121.253 23.7571C121.958 24.6194 122.869 25.0507 123.984 25.0507C125.099 25.0507 126.01 24.6194 126.716 23.7571C127.421 22.8663 127.773 21.6876 127.773 20.2212V20.226ZM124.337 27.7001C122.604 27.7001 121.109 26.8953 120.371 25.8611V33.3354H117.317V12.9839H120.371V14.6437C120.93 13.695 122.604 12.7461 124.396 12.7461C128.713 12.7461 131.004 15.506 131.004 20.2212C131.004 24.8195 128.684 27.7001 124.337 27.7001Z" fill="#747474"/>
<path fill-rule="evenodd" clip-rule="evenodd" d="M160.334 23.5217C159.189 26.1518 157.173 27.4527 154.245 27.4527C152.122 27.4527 150.473 26.7461 149.328 25.3601C148.184 23.9457 147.625 22.1924 147.625 20.0999C147.625 18.0073 148.184 16.2539 149.328 14.868C150.473 13.4536 152.122 12.7461 154.245 12.7461C157.177 12.7461 159.189 14.0479 160.334 16.6772L157.736 17.8079C157.014 16.1678 155.839 15.3479 154.245 15.3479C151.87 15.3479 150.697 17.242 150.697 20.1016C150.697 22.9611 151.871 24.8555 154.245 24.8555C155.837 24.8555 157.01 24.0327 157.736 22.3952L160.334 23.5217Z" fill="#747474"/>
<path fill-rule="evenodd" clip-rule="evenodd" d="M164.595 18.4617H171.777C171.516 16.6799 170.283 15.3534 168.202 15.3534C166.236 15.3506 164.946 16.6232 164.595 18.4617ZM175 20.9217H164.536C164.536 23.1558 165.884 24.8527 168.201 24.8527C169.865 24.8491 171.376 23.9105 172.068 22.4493L174.676 23.4365C173.183 26.2368 171.456 27.4527 168.201 27.4527C163.335 27.4527 161.312 23.4933 161.312 20.0999C161.312 16.7064 163.335 12.7461 168.201 12.7461C172.919 12.7461 175 16.4514 175 19.6473V20.9217Z" fill="#747474"/>
<path fill-rule="evenodd" clip-rule="evenodd" d="M78.5088 20.0993C78.5088 21.5423 78.8612 22.7019 79.5663 23.5782C80.2713 24.4272 81.1816 24.8516 82.2969 24.8509C83.4125 24.8504 84.3225 24.4261 85.0278 23.5782C85.7304 22.7011 86.0816 21.5416 86.0816 20.0993C86.0816 18.6568 85.7296 17.4977 85.0248 16.6488C84.3202 15.7728 83.4125 15.3479 82.2942 15.3479C81.1759 15.3479 80.2682 15.7728 79.5633 16.6488C78.8615 17.4977 78.5088 18.6568 78.5088 20.0993ZM81.9441 12.7461C82.6782 12.7461 83.4125 12.9443 84.2055 13.3116C84.9984 13.6788 85.5561 14.0753 85.9128 14.5569V12.9581H88.9658V27.2261H86.4154L85.9088 25.5863C85.3502 26.5191 83.6771 27.4527 81.8863 27.4527C77.5696 27.4527 75.2789 24.7377 75.2789 20.0993C75.2789 15.5745 77.599 12.7461 81.9441 12.7461Z" fill="#747474"/>
<path fill-rule="evenodd" clip-rule="evenodd" d="M135.209 20.0993C135.209 21.5423 135.562 22.7019 136.267 23.5782C136.972 24.4272 137.882 24.8516 138.998 24.8509C140.114 24.8504 141.025 24.4261 141.729 23.5782C142.434 22.7011 142.787 21.5416 142.787 20.0993C142.787 18.6568 142.434 17.4977 141.729 16.6488C141.025 15.7728 140.117 15.3479 138.998 15.3479C137.879 15.3479 136.972 15.7728 136.267 16.6488C135.562 17.4977 135.209 18.6568 135.209 20.0993ZM138.645 12.7461C139.379 12.7461 140.114 12.9443 140.907 13.3116C141.701 13.6788 142.258 14.0753 142.615 14.5569V12.9581H145.669V27.2261H143.121L142.615 25.5863C142.056 26.5191 140.382 27.4527 138.591 27.4527C134.273 27.4527 131.982 24.7377 131.982 20.0993C131.979 15.5745 134.299 12.7461 138.645 12.7461Z" fill="#747474"/>
<path fill-rule="evenodd" clip-rule="evenodd" d="M37.0701 18.4106C37.5013 24.5146 34.7083 27.9776 33.0254 30.3992C30.4057 33.2025 27.0875 37.0252 18.6573 37.239C11.507 37.5258 7.9936 34.3331 5.04342 31.5602C1.19753 27.2683 0.192959 24.7286 0.000164013 18.4106C-0.0178798 14.5374 1.45368 10.6716 4.02512 7.27044C7.63036 2.10166 13.3629 0.368816 18.6573 0.0118261C24.2126 -0.206696 28.6307 2.63744 31.6464 5.70185C35.5067 9.83409 36.6922 13.3827 37.0673 18.4106" fill="#747474"/>
</svg>
