<svg width="22" height="22" viewBox="0 0 22 22" fill="none" xmlns="http://www.w3.org/2000/svg">
<path fill-rule="evenodd" clip-rule="evenodd" d="M15.7944 12.8672C15.5364 12.7387 14.2681 12.1177 14.0317 12.0319C13.7952 11.9462 13.6232 11.9034 13.4513 12.1604C13.2793 12.4173 12.7849 12.9957 12.6344 13.1671C12.484 13.3384 12.3335 13.3599 12.0755 13.2313C11.8175 13.1028 10.9863 12.8317 10.001 11.957C9.23413 11.2762 8.71639 10.4355 8.56594 10.1785C8.41543 9.92149 8.54983 9.78256 8.679 9.65456C8.7951 9.5395 8.93704 9.35467 9.06598 9.20473C9.19496 9.05486 9.23796 8.9477 9.32395 8.77647C9.40993 8.60506 9.36694 8.45519 9.30241 8.32671C9.23796 8.1982 8.72203 6.93446 8.50706 6.42037C8.29766 5.91981 8.08499 5.98761 7.92664 5.97967C7.77634 5.97224 7.60418 5.97065 7.43224 5.97065C7.26027 5.97065 6.98077 6.03491 6.74426 6.29186C6.50787 6.54889 5.84142 7.17006 5.84142 8.43365C5.84142 9.69742 6.76576 10.9181 6.89478 11.0895C7.0238 11.2609 8.71379 13.854 11.3017 14.9661C11.9171 15.2307 12.3976 15.3886 12.7723 15.5069C13.3902 15.7023 13.9526 15.6747 14.3971 15.6086C14.8927 15.535 15.9234 14.9876 16.1383 14.3879C16.3533 13.7881 16.3533 13.2741 16.2888 13.1671C16.2243 13.0599 16.0523 12.9957 15.7944 12.8672ZM11.0874 19.2633H11.084C9.54419 19.2627 8.03394 18.8509 6.71642 18.0729L6.40306 17.8878L3.1553 18.7357L4.02216 15.5842L3.81818 15.2611C2.95919 13.9014 2.50548 12.3299 2.50615 10.7162C2.50805 6.0076 6.35758 2.17678 11.0909 2.17678C13.3829 2.17759 15.5374 3.06706 17.1576 4.68134C18.7777 6.29552 19.6694 8.44118 19.6686 10.7231C19.6666 15.4321 15.8172 19.2633 11.0874 19.2633ZM18.3907 3.4547C16.4414 1.51256 13.8492 0.442515 11.0874 0.441406C5.39674 0.441406 0.765263 5.05044 0.762961 10.7156C0.762218 12.5265 1.2376 14.2941 2.14107 15.8523L0.676453 21.1767L6.14948 19.7479C7.6575 20.5665 9.35532 20.9979 11.0833 20.9985H11.0875C16.7775 20.9985 21.4094 16.389 21.4117 10.7238C21.4128 7.97835 20.3399 5.39685 18.3907 3.45474" fill="white" fill-opacity="0.5"/>
</svg>
