<svg width="91" height="65" viewBox="0 0 91 65" fill="none" xmlns="http://www.w3.org/2000/svg">
<path d="M15.9348 41.8523H2.88001C1.53617 41.8523 0.57605 42.9082 0.57605 44.1563L0.576719 61.8186C0.576719 63.1625 1.63266 64.1226 2.88068 64.1226H15.9355C17.2793 64.1226 18.2394 63.0666 18.2394 61.8186L18.2388 44.1563C18.3345 42.9088 17.2786 41.8528 15.9348 41.8528V41.8523ZM13.6308 59.5147H5.27979V46.5555H13.6308V59.5147Z" fill="url(#paint0_linear_11_879)"/>
<path d="M40.0286 27.5496H26.9745C25.6306 27.5496 24.6705 28.6056 24.6705 29.8536V61.8186C24.6705 63.1625 25.7264 64.1226 26.9745 64.1226H40.0293C41.3731 64.1226 42.3332 63.0666 42.3332 61.8186L42.3325 29.9496C42.3325 28.6057 41.2766 27.5498 40.0286 27.5498L40.0286 27.5496ZM37.6288 59.5147H29.2777V32.2532H37.6288V59.5147Z" fill="url(#paint1_linear_11_879)"/>
<path d="M64.0263 41.8523H50.9722C49.6284 41.8523 48.6683 42.9082 48.6683 44.1563V61.8186C48.6683 63.1625 49.7242 64.1226 50.9722 64.1226H64.027C65.3709 64.1226 66.331 63.0666 66.331 61.8186L66.3303 44.1563C66.4261 42.9088 65.3708 41.8528 64.0263 41.8528L64.0263 41.8523ZM61.7229 59.5147H53.3718V46.5555H61.7229V59.5147Z" fill="url(#paint2_linear_11_879)"/>
<path d="M88.1201 27.5496H75.0653C73.7215 27.5496 72.7614 28.6056 72.7614 29.8536V61.8186C72.7614 63.1625 73.8173 64.1226 75.0653 64.1226H88.1201C89.464 64.1226 90.4241 63.0666 90.4241 61.8186L90.4234 29.9496C90.4234 28.6057 89.3681 27.5498 88.12 27.5498L88.1201 27.5496ZM85.7203 59.5147H77.3693V32.2532H85.7203V59.5147Z" fill="url(#paint3_linear_11_879)"/>
<path d="M75.0653 16.4146C76.7928 18.0464 79.0011 19.0066 81.4967 19.0066C86.7764 19.0066 91 14.6872 91 9.50329C91 4.32011 86.6806 0 81.4967 0C76.3135 0 71.9934 4.31943 71.9934 9.50329C71.9934 10.5592 72.1856 11.5194 72.4735 12.4788L63.9303 17.9507C62.2028 16.3189 59.9945 15.3587 57.4989 15.3587C55.0033 15.3587 52.6994 16.3189 51.0675 17.9507L42.5243 12.4788C42.8122 11.5187 43.0044 10.5592 43.0044 9.50329C43.0044 4.22361 38.685 0 33.5011 0C28.3179 0 23.9978 4.31943 23.9978 9.50329C23.9978 10.5592 24.19 11.5194 24.4779 12.4788L15.9347 17.9507C14.2072 16.3189 11.9989 15.3587 9.50329 15.3587C4.22361 15.3587 0 19.6782 0 24.862C0 30.0452 4.31943 34.3653 9.50329 34.3653C14.6865 34.3653 19.0066 30.0459 19.0066 24.862C19.0066 23.8061 18.8144 22.8459 18.5265 21.8865L27.0697 16.4146C28.7972 18.0464 31.0055 19.0066 33.5011 19.0066C35.9967 19.0066 38.3007 18.0464 39.9325 16.4146L48.4757 21.8865C48.1878 22.8467 47.9956 23.8061 47.9956 24.862C47.9956 30.1417 52.315 34.3653 57.4989 34.3653C62.6821 34.3653 67.0022 30.0459 67.0022 24.862C67.0022 23.8061 66.81 22.8459 66.5221 21.8865L75.0653 16.4146ZM81.5924 4.60792C84.2801 4.60792 86.3919 6.81554 86.3919 9.40747C86.3919 11.9994 84.1843 14.207 81.5924 14.207C78.9046 14.207 76.7928 11.9994 76.7928 9.40747C76.7928 6.81554 78.9046 4.60792 81.5924 4.60792ZM9.40706 29.7576C6.71931 29.7576 4.6075 27.55 4.6075 24.958C4.6075 22.3661 6.81513 20.1585 9.40706 20.1585C11.999 20.1585 14.2066 22.3661 14.2066 24.958C14.2066 27.55 12.0948 29.7576 9.40706 29.7576ZM33.5008 14.303C30.8131 14.303 28.7013 12.0954 28.7013 9.50346C28.7013 6.91153 30.9089 4.70391 33.5008 4.70391C36.0928 4.70391 38.3004 6.91153 38.3004 9.50346C38.3004 12.0954 36.0928 14.303 33.5008 14.303ZM57.4986 29.7576C54.8108 29.7576 52.699 27.55 52.699 24.958C52.699 22.3661 54.9067 20.1585 57.4986 20.1585C60.0905 20.1585 62.2981 22.3661 62.2981 24.958C62.2981 27.55 60.1863 29.7576 57.4986 29.7576Z" fill="url(#paint4_linear_11_879)"/>
<defs>
<linearGradient id="paint0_linear_11_879" x1="9.41042" y1="41.8523" x2="9.41042" y2="64.1226" gradientUnits="userSpaceOnUse">
<stop stop-color="#D75269"/>
<stop offset="1" stop-color="#F29273"/>
</linearGradient>
<linearGradient id="paint1_linear_11_879" x1="33.5019" y1="27.5496" x2="33.5019" y2="64.1226" gradientUnits="userSpaceOnUse">
<stop stop-color="#D75269"/>
<stop offset="1" stop-color="#F29273"/>
</linearGradient>
<linearGradient id="paint2_linear_11_879" x1="57.5023" y1="41.8523" x2="57.5023" y2="64.1226" gradientUnits="userSpaceOnUse">
<stop stop-color="#D75269"/>
<stop offset="1" stop-color="#F29273"/>
</linearGradient>
<linearGradient id="paint3_linear_11_879" x1="81.5927" y1="27.5496" x2="81.5927" y2="64.1226" gradientUnits="userSpaceOnUse">
<stop stop-color="#D75269"/>
<stop offset="1" stop-color="#F29273"/>
</linearGradient>
<linearGradient id="paint4_linear_11_879" x1="45.5" y1="0" x2="45.5" y2="34.3653" gradientUnits="userSpaceOnUse">
<stop stop-color="#D75269"/>
<stop offset="1" stop-color="#F29273"/>
</linearGradient>
</defs>
</svg>
