<svg width="22" height="22" viewBox="0 0 22 22" fill="none" xmlns="http://www.w3.org/2000/svg">
<path d="M10.8088 0.82373C7.99313 0.82373 7.64006 0.835676 6.53423 0.88611C5.43072 0.936452 4.67707 1.11174 4.01759 1.36799C3.33582 1.63294 2.75764 1.98746 2.18128 2.56382C1.6049 3.14018 1.25037 3.71842 0.98545 4.40019C0.72914 5.05963 0.553915 5.81328 0.503511 6.9168C0.453076 8.02263 0.441162 8.3757 0.441162 11.1914C0.441162 14.0071 0.453076 14.3601 0.503511 15.466C0.553915 16.5695 0.72914 17.3231 0.98545 17.9826C1.2504 18.6643 1.60493 19.2425 2.18128 19.8189C2.75767 20.3953 3.33582 20.7498 4.01759 21.0148C4.67707 21.271 5.43072 21.4463 6.53423 21.4966C7.64006 21.5471 7.99313 21.559 10.8088 21.559C13.6245 21.559 13.9776 21.5471 15.0834 21.4966C16.1869 21.4463 16.9406 21.271 17.6 21.0148C18.2818 20.7498 18.8599 20.3953 19.4364 19.8189C20.0127 19.2425 20.3672 18.6643 20.6322 17.9826C20.8884 17.3231 21.0637 16.5695 21.1141 15.466C21.1645 14.3601 21.1765 14.0071 21.1765 11.1914C21.1765 8.3757 21.1645 8.02263 21.1141 6.9168C21.0637 5.81328 20.8884 5.05963 20.6322 4.40019C20.3672 3.71842 20.0127 3.14018 19.4364 2.56382C18.8599 1.98746 18.2818 1.63294 17.6 1.36799C16.9406 1.11174 16.1869 0.936452 15.0834 0.88611C13.9776 0.835676 13.6245 0.82373 10.8088 0.82373ZM10.8088 2.69176C13.5771 2.69176 13.905 2.70235 14.9982 2.75223C16.0091 2.79831 16.558 2.96721 16.9233 3.10919C17.4073 3.29729 17.7527 3.52193 18.1154 3.88473C18.4783 4.24752 18.7029 4.59291 18.891 5.07683C19.033 5.44215 19.2019 5.99113 19.248 7.00196C19.2978 8.0952 19.3084 8.42311 19.3084 11.1914C19.3084 13.9596 19.2978 14.2876 19.248 15.3808C19.2019 16.3917 19.033 16.9406 18.891 17.3059C18.7029 17.7899 18.4783 18.1352 18.1154 18.498C17.7527 18.8608 17.4073 19.0855 16.9234 19.2736C16.558 19.4155 16.0091 19.5844 14.9982 19.6305C13.9052 19.6804 13.5773 19.691 10.8088 19.691C8.04033 19.691 7.7125 19.6804 6.61939 19.6305C5.60853 19.5844 5.05959 19.4155 4.69429 19.2736C4.21031 19.0855 3.86495 18.8608 3.50219 18.498C3.13939 18.1352 2.91472 17.7898 2.72662 17.3059C2.58464 16.9406 2.41577 16.3916 2.36966 15.3808C2.31978 14.2876 2.30919 13.9596 2.30919 11.1914C2.30919 8.42311 2.31978 8.0952 2.36966 7.00196C2.41577 5.9911 2.58464 5.44215 2.72662 5.07686C2.91472 4.59288 3.13939 4.24752 3.50216 3.88476C3.86495 3.52193 4.21034 3.29729 4.69426 3.10919C5.05959 2.96721 5.60856 2.79831 6.61939 2.75223C7.71263 2.70235 8.04055 2.69176 10.8088 2.69176" fill="white" fill-opacity="0.5"/>
<path d="M10.8089 14.6474C8.9002 14.6474 7.35295 13.1001 7.35295 11.1915C7.35295 9.28285 8.9002 7.73561 10.8089 7.73561C12.7175 7.73561 14.2647 9.28285 14.2647 11.1915C14.2647 13.1001 12.7175 14.6474 10.8089 14.6474ZM10.8089 5.86758C7.86851 5.86758 5.48492 8.25116 5.48492 11.1915C5.48492 14.1318 7.86851 16.5154 10.8089 16.5154C13.7492 16.5154 16.1328 14.1318 16.1328 11.1915C16.1328 8.25116 13.7492 5.86758 10.8089 5.86758ZM17.5873 5.65723C17.5873 6.34436 17.0302 6.90133 16.3431 6.90133C15.656 6.90133 15.099 6.34436 15.099 5.65723C15.099 4.97012 15.656 4.41309 16.3431 4.41309C17.0302 4.41309 17.5873 4.97012 17.5873 5.65723Z" fill="white" fill-opacity="0.5"/>
</svg>
