<svg width="19" height="19" viewBox="0 0 19 19" fill="none" xmlns="http://www.w3.org/2000/svg">
<path d="M18.2043 18.412H14.4835V12.5749C14.4835 11.183 14.4587 9.39118 12.5484 9.39118C10.6105 9.39118 10.314 10.9077 10.314 12.4736V18.4116H6.59317V6.40818H10.1651V8.04857H10.2151C10.5726 7.43631 11.0891 6.93263 11.7098 6.59118C12.3304 6.24973 13.0318 6.0833 13.7394 6.10961C17.5106 6.10961 18.2059 8.59447 18.2059 11.8271L18.2043 18.412ZM2.39489 4.76739C1.96784 4.76747 1.55036 4.64069 1.19523 4.40308C0.840109 4.16547 0.563297 3.82771 0.3998 3.4325C0.236304 3.0373 0.193466 2.6024 0.276705 2.1828C0.359943 1.76321 0.565519 1.37776 0.867437 1.07521C1.16935 0.772653 1.55405 0.566579 1.97288 0.483044C2.39172 0.399509 2.82587 0.442266 3.22044 0.605907C3.61502 0.769547 3.95229 1.04672 4.18961 1.40238C4.42693 1.75804 4.55364 2.17621 4.55372 2.60401C4.55377 2.88806 4.49797 3.16934 4.38951 3.43178C4.28104 3.69423 4.12204 3.93271 3.92158 4.13359C3.72111 4.33448 3.48311 4.49385 3.22116 4.6026C2.95921 4.71135 2.67845 4.76734 2.39489 4.76739ZM4.25528 18.412H0.530628V6.40818H4.25528V18.412Z" fill="white" fill-opacity="0.5"/>
</svg>
