<svg width="130" height="49" viewBox="0 0 130 49" fill="none" xmlns="http://www.w3.org/2000/svg">
<path d="M20.1955 11.6602L10.0963 5.8301L0 11.6602V5.8301L10.0977 0L20.1969 5.8301V11.6602H20.1955Z" fill="white"/>
<path d="M0 16.5558H5.28964V29.4076C5.28964 32.728 7.76915 34.3465 10.0977 34.3465C12.4465 34.3465 14.9073 32.6849 14.9073 29.3631V16.5558H20.1969V29.7138C20.1969 32.7726 19.2353 35.1328 17.3121 36.7513C15.3874 38.3684 12.984 39.1561 10.0532 39.1561C7.1252 39.1561 4.72043 38.3698 2.84174 36.7513C0.961621 35.1342 0 32.8617 0 29.8446V16.5558ZM65.9278 32.5282C64.3266 33.9541 62.5025 34.6527 60.4226 34.6527C56.6279 34.6527 54.0837 32.4908 53.7962 29.1431H70.8869C70.8869 29.1431 71.0019 28.0622 71.0019 27.0474C71.0019 23.8995 69.9957 21.2762 67.9402 19.1345C65.9307 16.9928 63.3089 15.9435 60.1164 15.9435C56.7515 15.9435 53.996 16.9928 51.8097 19.1345C49.668 21.2762 48.5755 24.0734 48.5755 27.5721V27.7445C48.5755 31.1986 49.668 33.9527 51.8097 36.0082C53.9514 38.0622 56.7932 39.1115 60.2472 39.1115C64.2633 39.1115 67.4587 37.5275 69.8563 34.7964L65.9278 32.5282ZM55.8747 21.8009C57.0533 20.8824 58.4979 20.4023 60.115 20.4023C61.6444 20.4023 62.9122 20.8824 64.006 21.8455C65.0496 22.7223 65.6131 23.7989 65.6619 25.0365H53.9313C54.1009 23.7572 54.7477 22.6791 55.8761 21.8023L55.8747 21.8009ZM119.175 42.0812C117.029 47.148 114.784 48.8715 111.341 48.8715H108.955V44.1827H110.884C112.068 44.1827 113.169 43.7371 114.219 41.3165L115.268 38.893L106.218 16.5558H111.596L118.022 32.6432L124.624 16.5558H130L119.176 42.0812H119.175ZM40.7891 8.11975V18.5509C39.0556 16.9985 36.3591 16.0743 33.7516 16.0743C30.6468 16.0743 28.025 17.1667 25.8833 19.3947C23.7847 21.581 22.7354 24.2905 22.7354 27.5692C22.7354 30.8493 23.7847 33.5588 25.8833 35.7882C28.025 37.9745 30.6483 39.0684 33.7516 39.0684C37.3307 39.0684 39.5932 37.6612 40.7891 36.5587V38.5869H46.0356V8.12119H40.7891V8.11975ZM39.2152 32.3802C37.9474 33.648 36.3303 34.3048 34.4502 34.3048C32.5701 34.3048 31.0407 33.648 29.7729 32.3802C28.5511 31.1124 27.9373 29.4953 27.9373 27.5721C27.9373 25.6474 28.5497 24.0303 29.7729 22.7625C31.0407 21.4947 32.5701 20.8393 34.4502 20.8393C36.3303 20.8393 37.9474 21.4947 39.2152 22.7625C40.5261 24.0303 41.1844 25.6474 41.1844 27.5721C41.1844 29.4953 40.5261 31.1124 39.2152 32.3802ZM98.0624 16.1188C94.0779 16.1188 92.0066 17.7719 90.5879 19.3645C90.0201 18.2821 88.4217 16.1188 84.6874 16.1188C81.5308 16.1188 79.6708 17.7144 78.7423 18.8499V16.5587H73.5418V38.5897H78.7423V25.9119C78.7423 22.9393 80.5793 20.7976 83.0257 20.7976C85.5196 20.7976 86.9613 22.6777 86.9613 25.6934V38.5883H92.1633V25.9104C92.1633 22.8948 93.9543 20.7961 96.533 20.7961C99.0254 20.7961 100.467 22.6763 100.467 25.6905V38.5869H105.714V24.9488C105.714 19.2049 102.626 16.1203 98.0624 16.1203V16.1188Z" fill="white"/>
</svg>
