<svg width="199" height="47" viewBox="0 0 199 47" fill="none" xmlns="http://www.w3.org/2000/svg">
<path d="M172.879 23.5C172.879 16.0678 178.496 10.8298 185.939 10.8298C193.382 10.8298 199 16.0678 199 23.5C199 30.9322 193.382 36.1701 185.939 36.1701C178.496 36.1701 172.879 30.8615 172.879 23.5ZM191.628 23.5C191.628 20.0316 189.45 17.4834 186.01 17.4834C182.569 17.4834 180.392 20.0316 180.392 23.5C180.392 26.9684 182.569 29.5166 186.01 29.5166C189.45 29.5166 191.628 27.0391 191.628 23.5ZM167.963 17.625C168.455 18.616 168.666 19.6777 168.666 20.8102C168.666 23.5 167.261 25.9774 165.015 27.8885C168.103 29.375 169.93 32.985 169.93 36.3826C169.93 42.753 164.804 47 157.009 47C149.215 47 144.089 42.8238 144.089 36.3826C144.018 32.8434 145.914 29.5873 149.004 27.8885C146.687 25.9774 145.352 23.5 145.352 20.8102C145.352 15.2184 149.707 11.113 156.588 11.113C160.66 11.113 161.854 11.8207 164.171 11.8207C165.716 11.8916 167.332 11.4669 168.666 10.6175C169.157 10.3343 169.648 10.122 170.21 10.122C171.124 10.122 171.615 11.0422 171.615 12.1746C171.825 14.6521 170.28 16.8463 167.963 17.625ZM162.697 36.1701C162.697 33.3389 160.52 31.3569 157.079 31.3569C153.639 31.3569 151.461 33.2681 151.461 36.1701C151.461 38.86 153.849 40.9834 157.079 40.9834C160.309 40.9834 162.697 38.86 162.697 36.1701ZM152.515 21.235C152.586 23.7123 154.692 25.6943 157.219 25.6235C159.607 25.5527 161.433 23.6416 161.574 21.235C161.574 18.6867 159.748 16.9172 157.079 16.9172C154.411 16.9172 152.515 18.616 152.515 21.235ZM140.719 23.9955V32.8434C140.719 34.5422 140.087 35.25 138.26 35.25H135.803C133.978 35.25 133.345 34.5422 133.345 32.8434V24.2078C133.345 22.0135 132.994 20.4563 132.222 19.4654C131.309 18.3328 129.905 17.7666 128.5 17.8373C127.026 17.7666 125.621 18.4036 124.639 19.4654C123.796 20.4563 123.234 22.0135 123.234 24.1371V32.7726C123.234 34.5422 122.462 35.1793 120.777 35.1793H118.319C116.633 35.1793 115.861 34.5422 115.861 32.7726V12.9533C115.861 11.8207 116.423 11.3253 117.265 11.3253C118.53 11.3253 120.284 12.3871 121.618 14.4398C123.656 12.1746 126.535 10.9006 129.554 10.9006C133.135 10.9006 136.014 12.1746 137.909 14.2982C139.805 16.4217 140.719 19.3238 140.719 23.9955ZM102.379 4.03463C102.379 1.76957 104.275 0 106.452 0H106.592C108.769 0.141566 110.454 2.05271 110.314 4.24699C110.173 6.44127 108.277 8.14006 106.101 7.9985C103.994 7.92771 102.379 6.15813 102.379 4.03463ZM102.871 32.8434V14.2274C102.871 12.5287 103.502 11.75 105.328 11.75H107.786C109.612 11.75 110.244 12.4578 110.244 14.2274V32.8434C110.244 34.5422 109.612 35.25 107.786 35.25H105.328C103.502 35.25 102.871 34.5422 102.871 32.8434ZM89.8801 32.8434V9.48494C89.8801 3.60994 93.1101 0.283133 95.8486 0.283133C96.6913 0.283133 97.2529 0.849398 97.2529 1.91115V32.8434C97.2529 34.6129 96.5508 35.25 94.7954 35.25H92.3376C90.6524 35.25 89.8801 34.6129 89.8801 32.8434ZM59.5455 23.5C59.5455 16.0678 65.1631 10.8298 72.6063 10.8298C80.0495 10.8298 85.6669 16.0678 85.6669 23.5C85.6669 30.9322 80.0495 36.1701 72.6063 36.1701C65.1631 36.1701 59.5455 30.8615 59.5455 23.5ZM78.2237 23.5C78.2237 20.0316 76.047 17.4834 72.6063 17.4834C69.1655 17.4834 66.9887 20.0316 66.9887 23.5C66.9887 26.9684 69.1655 29.5166 72.6063 29.5166C76.047 29.5166 78.2237 27.0391 78.2237 23.5ZM55.7537 14.2274V34.0467C55.7537 35.1793 55.192 35.6746 54.3494 35.6746C53.0854 35.6746 51.3299 34.6129 50.066 32.631C48.0998 34.8961 45.2911 36.1701 42.2717 36.0994C39.463 36.1701 36.7946 35.1793 34.6881 33.2681C32.5113 31.1445 31.3175 27.8885 31.3175 23.2168V14.2274C31.3175 12.5287 31.9495 11.75 33.7752 11.75H36.2328C38.0586 11.75 38.6905 12.4578 38.6905 14.2274V22.5799C38.6905 25.4111 39.182 26.8976 40.095 27.8885C40.9376 28.7379 42.2014 29.2334 43.3952 29.1627C44.7293 29.1627 45.9933 28.6672 46.9062 27.6762C47.819 26.6852 48.3105 25.128 48.3105 22.7213V14.2274C48.3105 12.4578 49.0829 11.75 50.7682 11.75H53.2258C54.9813 11.75 55.7537 12.4578 55.7537 14.2274ZM26.2619 1.91115V34.0467C26.2619 35.1793 25.7001 35.6746 24.8575 35.6746C23.5935 35.6746 21.8381 34.6129 20.5741 32.7018C19.0293 34.5422 15.8695 36.1701 12.218 36.1701C4.91531 36.1701 0 30.7906 0 23.5C0 16.2094 5.05575 10.8298 12.218 10.8298C14.6055 10.8298 16.9228 11.5377 18.959 12.8826V9.48494C18.959 3.60994 22.2594 0.283133 24.9276 0.283133C25.7703 0.283133 26.2619 0.849398 26.2619 1.91115ZM18.959 23.5C18.959 19.89 16.4312 17.4834 13.2713 17.4834C10.1115 17.4834 7.5134 19.89 7.5134 23.5C7.5134 27.11 10.0413 29.5166 13.2713 29.5166C16.5015 29.5166 18.959 27.1807 18.959 23.5Z" fill="#58CC02"/>
</svg>
