<svg width="108" height="29" viewBox="0 0 108 29" fill="none" xmlns="http://www.w3.org/2000/svg">
<path d="M18.7695 12.3028C18.0301 13.0557 17.0283 13.4785 15.9837 13.4785C14.9392 13.4785 13.9373 13.0557 13.198 12.3028C12.9891 12.078 12.7383 11.8983 12.4603 11.7741C12.1823 11.6499 11.8827 11.5837 11.5792 11.5796C11.2758 11.5754 10.9746 11.6334 10.6934 11.7499C10.4122 11.8665 10.1568 12.0393 9.9422 12.2582C9.72744 12.4771 9.55794 12.7377 9.44354 13.0245C9.32913 13.3114 9.27218 13.6187 9.27607 13.9284C9.27996 14.238 9.34453 14.5437 9.46609 14.8275C9.5876 15.1113 9.76358 15.3674 9.9837 15.5807C11.5765 17.2016 13.7342 18.1119 15.9837 18.1119C18.2332 18.1119 20.391 17.2016 21.9838 15.5807C22.4062 15.1449 22.6424 14.5562 22.6408 13.9432C22.6392 13.3302 22.3999 12.7428 21.9751 12.3094C21.5504 11.876 20.9748 11.6317 20.3741 11.6301C19.7734 11.6285 19.1965 11.8695 18.7695 12.3006" fill="white"/>
<path d="M79.8501 9.04335C77.0111 8.14183 74.0797 9.01109 72.1829 11.31C71.6269 10.5673 70.9243 9.95207 70.1203 9.50437C69.3162 9.05658 68.4287 8.78627 67.5158 8.71092C66.6481 8.63104 65.773 8.73767 64.9475 9.02397C64.1226 9.31021 63.3653 9.76977 62.7248 10.373C62.5556 9.82037 62.1987 9.34765 61.7177 9.0407C61.2368 8.7337 60.6639 8.61269 60.1029 8.69954C59.5418 8.78644 59.0304 9.0755 58.6599 9.51437C58.2901 9.95317 58.0865 10.5128 58.0859 11.0916V26.1235C58.1 26.7576 58.3577 27.3608 58.8026 27.8037C59.2475 28.2466 59.8446 28.4939 60.4665 28.4926C61.0879 28.4914 61.6845 28.2416 62.1276 27.7969C62.5708 27.3522 62.8257 26.748 62.8375 26.1138V14.731C63.173 14.2967 63.5982 13.9434 64.0831 13.6962C64.5674 13.4491 65.0997 13.3142 65.6416 13.3013C66.1569 13.2773 66.6712 13.3722 67.1454 13.5787C67.6201 13.7852 68.043 14.0982 68.3825 14.4944C68.921 15.1036 69.2153 15.8974 69.2068 16.718L69.2142 26.1095C69.2074 26.4322 69.2643 26.7529 69.3805 27.053C69.4972 27.3531 69.6709 27.6264 69.8919 27.8571C70.1135 28.0876 70.3774 28.2708 70.6689 28.3959C70.9604 28.521 71.2739 28.5854 71.5902 28.5854C71.906 28.5854 72.2195 28.521 72.511 28.3959C72.8025 28.2708 73.0664 28.0876 73.288 27.8571C73.509 27.6264 73.6833 27.3531 73.7994 27.053C73.9156 26.7529 73.9725 26.4322 73.9658 26.1095V14.7547C74.299 14.3156 74.7236 13.9576 75.2091 13.7064C75.6945 13.4553 76.2291 13.3173 76.7732 13.3024C77.2908 13.2758 77.8084 13.3692 78.286 13.5757C78.7636 13.7821 79.1893 14.0962 79.531 14.4944C80.0695 15.1038 80.3638 15.8975 80.3553 16.718L80.3615 26.1095C80.3548 26.4322 80.4112 26.7529 80.5279 27.053C80.644 27.3531 80.8183 27.6264 81.0393 27.8571C81.2609 28.0876 81.5248 28.2708 81.8163 28.3959C82.1078 28.521 82.4207 28.5854 82.7371 28.5854C83.0534 28.5854 83.3663 28.521 83.6578 28.3959C83.9499 28.2708 84.2138 28.0876 84.4348 27.8571C84.6564 27.6264 84.8301 27.3531 84.9468 27.053C85.063 26.7529 85.1193 26.4322 85.1131 26.1095L85.0489 15.4981C84.7895 12.4977 82.7483 9.96417 79.849 9.04335" fill="white"/>
<path d="M48.8775 9.04335C46.0385 8.14183 43.1078 9.01109 41.2103 11.31C40.6543 10.5674 39.9517 9.95227 39.1479 9.50457C38.3441 9.05681 37.4571 8.78644 36.5443 8.71092C35.676 8.63098 34.801 8.73755 33.9755 9.02385C33.1501 9.31009 32.3926 9.76967 31.7518 10.373C31.583 9.82037 31.2258 9.34765 30.7448 9.0407C30.2638 8.7337 29.691 8.61269 29.1301 8.69954C28.5693 8.78644 28.0575 9.0755 27.6875 9.51437C27.3175 9.95317 27.1138 10.5128 27.1133 11.0916V26.1127C27.1264 26.7469 27.3825 27.3505 27.8266 27.7942C28.2707 28.238 28.8674 28.4865 29.489 28.4865C30.1105 28.4865 30.7073 28.238 31.1514 27.7942C31.5955 27.3505 31.8516 26.7469 31.8647 26.1127V14.731C32.2003 14.2967 32.6258 13.9434 33.1107 13.6962C33.5956 13.4491 34.128 13.3142 34.6699 13.3013C35.1853 13.2769 35.6995 13.3715 36.1741 13.5781C36.6487 13.7846 37.0714 14.0979 37.4109 14.4944C37.9495 15.1036 38.2438 15.8974 38.2352 16.718L38.2426 26.1095C38.2426 26.7526 38.493 27.3693 38.9386 27.8241C39.3843 28.2789 39.9887 28.5343 40.6188 28.5343C41.249 28.5343 41.8534 28.2789 42.2991 27.8241C42.7447 27.3693 42.995 26.7526 42.995 26.1095V14.7547C43.3281 14.3155 43.7527 13.9574 44.238 13.7063C44.7233 13.455 45.2574 13.3171 45.8014 13.3024C46.3194 13.2761 46.8365 13.3696 47.3141 13.576C47.7917 13.7824 48.2173 14.0964 48.5592 14.4944C49.0981 15.1035 49.3924 15.8974 49.3836 16.718L49.391 26.1095C49.3843 26.4322 49.4408 26.7529 49.5572 27.053C49.6736 27.3531 49.8475 27.6264 50.0688 27.8571C50.29 28.0876 50.5542 28.2708 50.8457 28.3959C51.1373 28.521 51.4503 28.5854 51.7666 28.5854C52.0829 28.5854 52.396 28.521 52.6875 28.3959C52.9791 28.2708 53.2432 28.0876 53.4644 27.8571C53.6857 27.6264 53.8596 27.3531 53.976 27.053C54.0924 26.7529 54.1489 26.4322 54.1423 26.1095L54.0769 15.4981C53.8176 12.4977 51.7766 9.96417 48.8775 9.04335Z" fill="white"/>
<path d="M21.3208 21.3003C20.507 21.1927 19.9008 21.6155 19.1355 22.1491C18.0907 22.8763 16.7909 23.7811 14.286 23.8897C11.8266 23.9198 9.64753 23.1248 7.96815 21.5918C6.4617 20.2137 5.42222 18.2698 5.0427 16.128C4.33322 12.1239 5.93986 7.22917 11.1297 5.32071C12.5646 4.8365 14.0965 4.73183 15.5819 5.01651C17.0672 5.30118 18.4575 5.96589 19.6225 6.94839C20.0916 7.33677 20.6913 7.52168 21.2927 7.46336C21.8941 7.40497 22.4489 7.10804 22.8378 6.63638C23.4134 5.83493 23.5326 5.02272 23.192 4.23525C22.1547 1.82981 17.2589 0.314038 15.4868 0.116094C11.6716 -0.403506 7.77627 0.836866 4.80024 3.51986C1.71455 6.30183 -0.0354397 10.2606 0.0014578 14.3852C-0.047036 17.6792 1.11576 20.9635 3.27584 23.6369C5.45069 26.3264 8.38986 28.0723 11.5504 28.5618C12.2875 28.692 13.0341 28.7572 13.7821 28.7565C17.0043 28.7501 20.1197 27.5775 22.5743 25.4474C23.289 24.8643 23.5557 23.9144 23.2711 22.9678C22.9865 22.021 22.2359 21.3745 21.3198 21.3003" fill="white"/>
<path d="M102.31 22.5785C100.864 24.2503 98.8315 24.7839 96.8636 24.0029C94.7373 23.1584 93.3423 20.9907 93.3942 18.5993C93.3423 16.2143 94.7379 14.0444 96.8653 13.1999C97.4359 12.9695 98.0437 12.8502 98.6578 12.8481C100.014 12.8481 101.308 13.4602 102.316 14.6253L102.31 22.5785ZM107.063 26.1104V11.0914C107.063 10.5228 106.867 9.97217 106.511 9.53577C106.153 9.09946 105.657 8.80517 105.109 8.7044C104.56 8.60364 103.995 8.70285 103.511 8.98461C103.027 9.26636 102.656 9.71277 102.462 10.2458C99.7804 8.32988 96.5766 8.13623 93.6609 9.71757C90.461 11.4529 88.4509 14.9416 88.5394 18.6025C88.452 22.2601 90.4633 25.751 93.6637 27.4852C94.8991 28.171 96.2817 28.5354 97.688 28.5459C99.3479 28.5459 100.987 28.0134 102.463 26.9559C102.657 27.489 103.029 27.9355 103.513 28.2172C103.997 28.499 104.563 28.5981 105.111 28.4972C105.66 28.3963 106.156 28.1018 106.513 27.6653C106.87 27.2288 107.065 26.678 107.065 26.1093L107.063 26.1104Z" fill="white"/>
</svg>
