<svg width="12" height="20" viewBox="0 0 12 20" fill="none" xmlns="http://www.w3.org/2000/svg">
<path d="M1.76274 0.706436C1.62068 0.570665 1.42968 0.49554 1.23092 0.500205L1.02696 0.504991L0.987051 0.545941C0.787568 0.619413 0.624906 0.776698 0.54752 0.982692L1.76274 0.706436ZM1.76274 0.706436L9.49142 8.00912C9.6435 8.13754 9.73865 8.32228 9.75346 8.52276M1.76274 0.706436L9.25482 8.55961M9.75346 8.52276L9.25482 8.55961M9.75346 8.52276C9.75346 8.52274 9.75346 8.52272 9.75346 8.5227L9.25482 8.55961M9.75346 8.52276C9.76236 8.64312 9.74179 8.76262 9.69502 8.87144M9.25482 8.55961C9.25992 8.62851 9.2356 8.69638 9.18779 8.74622M9.69502 8.87144C9.6296 8.90478 9.56905 8.94786 9.5156 8.99963L9.48462 9.02889L9.18779 8.74622M9.69502 8.87144C9.77533 8.83051 9.86299 8.80426 9.9539 8.79463L10.5035 8.73641L10.5047 8.95441M9.69502 8.87144C9.6659 8.93918 9.62663 9.00279 9.57798 9.05988L9.79815 9.293L10.0065 9.29185L9.94194 8.79622C9.94593 8.79569 9.94992 8.79521 9.95391 8.79475C10.1561 8.77169 10.3532 8.83252 10.5047 8.95441M9.18779 8.74622L9.48356 9.02989M9.18779 8.74622L9.48356 9.02989M9.48356 9.02989L9.20044 9.29728M9.48356 9.02989L9.00425 8.82158C8.95216 8.81991 8.9024 8.8017 8.8619 8.77024C8.84948 8.76059 8.83793 8.7497 8.82745 8.73766C8.82678 8.73689 8.82612 8.73611 8.82546 8.73533M9.20044 9.29728C9.13223 9.3152 9.06122 9.32348 8.98948 9.32136L8.98824 9.32133C8.78993 9.31497 8.60257 9.22978 8.46757 9.08509M9.20044 9.29728C9.33173 9.26279 9.45267 9.19262 9.54865 9.09232L9.5487 9.09227C9.55669 9.08393 9.56446 9.07544 9.57202 9.06679L9.7953 9.29301L9.50658 9.29461L9.50658 9.29478L9.50871 9.68105L1.07835 17.6431M9.20044 9.29728L0.739154 17.2885L0.738493 17.2891C0.441016 17.5711 0.42695 18.0403 0.707069 18.3395C0.98742 18.639 1.45657 18.6553 1.75716 18.3774L1.75718 18.3774L1.76107 18.3738L10.5341 10.0881M8.46757 9.08509L8.48226 9.09895L8.81532 8.74608L8.81753 8.74816L8.83523 8.76489L8.85447 8.77981C8.84156 8.7698 8.82973 8.75864 8.81909 8.74651C8.81841 8.74575 8.81775 8.74498 8.81709 8.74421L8.82546 8.73533M8.46757 9.08509C8.45959 9.07653 8.45179 9.06777 8.44419 9.0588L8.81413 8.74495L1.07656 1.43386L0.751538 1.80178C0.748924 1.79947 0.74633 1.79715 0.743755 1.79481M8.46757 9.08509L0.743755 1.79481M8.82546 8.73533L8.7852 8.69733C8.79384 8.71367 8.80423 8.72905 8.81621 8.74318L8.82546 8.73533ZM0.743755 1.79481L0.73937 1.79067L1.07634 1.43366L0.547415 0.982971C0.439985 1.26911 0.518995 1.5906 0.743755 1.79481ZM10.5341 10.0881C10.7749 9.87282 10.8493 9.52637 10.7176 9.23088L10.7173 9.23024C10.668 9.12007 10.5944 9.02655 10.5047 8.95441M10.5341 10.0881L10.5404 10.0822L10.2035 9.72544L10.2051 9.72391L10.2052 9.724L10.213 9.71626C10.2104 9.71884 10.2078 9.72136 10.205 9.72382C10.2045 9.72432 10.2039 9.72482 10.2034 9.72531L10.1971 9.71865M10.5341 10.0881C10.5304 10.0914 10.5266 10.0947 10.5228 10.098L10.2032 9.72574L1.42644 18.0149M10.5047 8.95441L10.5066 9.28908L10.5066 9.28926L10.0672 9.29169C10.1509 9.30171 10.2253 9.35477 10.2609 9.4344C10.303 9.52891 10.2809 9.63907 10.2068 9.7099C10.2042 9.71238 10.2015 9.71481 10.1988 9.71719C10.1982 9.71768 10.1977 9.71817 10.1971 9.71865M10.1971 9.71865L10.1528 9.76046C10.1708 9.75092 10.1877 9.73924 10.2031 9.7256L10.1971 9.71865ZM1.42644 18.0149C1.44354 17.9987 1.45789 17.9806 1.46949 17.9614L1.42002 18.0081L1.42644 18.0149ZM1.42644 18.0149L1.42578 18.0155L1.41937 18.0087L1.41775 18.0103C1.31875 18.1018 1.16429 18.0963 1.07209 17.9978C0.980396 17.8999 0.984435 17.7466 1.08086 17.6535L1.07444 17.6467L1.07605 17.6452L1.07606 17.6452L1.07835 17.6431M1.07835 17.6431L1.08467 17.6499L1.13252 17.6047C1.11329 17.6149 1.09505 17.6277 1.07835 17.6431Z" fill="white" stroke="white"/>
</svg>
