<svg width="71" height="79" viewBox="0 0 71 79" fill="none" xmlns="http://www.w3.org/2000/svg">
<path d="M27.7817 0C12.4942 0 0 5.402 0 12.548V51.7052C0 59.0599 12.2007 64.8243 27.7817 64.8243H29.1088C29.9618 64.7947 30.6281 64.0795 30.5985 63.2272C30.5688 62.3741 29.8536 61.7079 29.0013 61.7375H27.7817C13.2273 61.7375 3.08684 56.4512 3.08684 51.7052V44.6827C7.66332 48.8886 16.893 51.7052 27.7817 51.7052C28.6072 51.7052 28.6457 51.7052 29.456 51.659C30.309 51.6246 30.9719 50.9059 30.9381 50.0536C30.9037 49.2013 30.185 48.5377 29.3327 48.5722C28.561 48.5722 28.561 48.6183 27.7893 48.6183C13.2348 48.6183 3.09441 43.3321 3.09441 38.5861V31.5635C7.66331 35.7694 16.893 38.5861 27.7822 38.5861C38.6714 38.5861 47.8997 35.7693 52.4771 31.5635V31.6407C52.5377 32.4476 53.2116 33.0705 54.0205 33.0684C54.4298 33.0684 54.8225 32.9058 55.1119 32.6164C55.4013 32.327 55.5639 31.9343 55.5639 31.525V12.5487C55.5639 5.40276 43.0697 0.00075901 27.7822 0.00075901L27.7817 0ZM52.4766 25.4674C52.4766 30.2134 42.3361 35.4997 27.7817 35.4997C13.2273 35.4997 3.08686 30.2134 3.08686 25.4674V18.6529C7.66334 22.7355 16.893 25.4674 27.7817 25.4674C38.6704 25.4674 47.8992 22.7355 52.4766 18.6529V25.4674ZM27.7817 22.3806C13.2273 22.3806 3.08686 17.2949 3.08686 12.7341C3.08686 8.17329 13.2273 3.08756 27.7817 3.08756C42.3361 3.08756 52.4766 8.17329 52.4766 12.7341C52.4766 17.2949 42.3361 22.3806 27.7817 22.3806Z" fill="url(#paint0_linear_11_892)"/>
<path d="M52.4766 78.251C52.2065 78.253 51.9398 78.1834 51.7049 78.0504L34.7272 68.2422C34.2504 67.9666 33.9561 67.4574 33.9554 66.9068V47.3062C33.9561 46.7556 34.2504 46.2465 34.7272 45.9708L51.7049 36.1626C52.1824 35.887 52.7708 35.887 53.2483 36.1626L70.226 45.9708C70.7028 46.2465 70.997 46.7556 70.9977 47.3062V66.9068C70.997 67.4574 70.7028 67.9666 70.226 68.2422L53.2483 78.0504C53.0133 78.1834 52.7467 78.253 52.4766 78.251ZM37.0423 66.0192L52.4766 74.9249L67.9109 66.0192V48.1931L52.4766 39.2874L37.0423 48.1931V66.0192Z" fill="url(#paint1_linear_11_892)"/>
<path d="M52.4766 59.0366C52.2058 59.0359 51.9391 58.9642 51.7048 58.8285L34.7271 49.0278C33.9878 48.6013 33.7335 47.6567 34.1601 46.9166C34.5859 46.1773 35.5312 45.9237 36.2706 46.3495L52.4766 55.7106L68.6826 46.3495C69.4219 45.9237 70.3673 46.1773 70.7931 46.9166C71.2196 47.6566 70.9654 48.6013 70.2261 49.0278L53.2483 58.8285C53.0141 58.9642 52.7474 59.0359 52.4766 59.0366H52.4766Z" fill="url(#paint2_linear_11_892)"/>
<path d="M52.4766 78.198C51.6243 78.198 50.9332 77.5069 50.9332 76.6546V57.1068C50.9332 56.2504 51.6277 57.1068 52.4766 57.1068C53.3255 57.1068 54.02 56.2731 54.02 57.1068V76.6317C54.0262 77.0451 53.8664 77.4433 53.5763 77.7382C53.2862 78.0325 52.89 78.1985 52.4766 78.1985V78.198Z" fill="url(#paint3_linear_11_892)"/>
<defs>
<linearGradient id="paint0_linear_11_892" x1="27.782" y1="0" x2="27.782" y2="64.8243" gradientUnits="userSpaceOnUse">
<stop stop-color="#D75269"/>
<stop offset="1" stop-color="#F29273"/>
</linearGradient>
<linearGradient id="paint1_linear_11_892" x1="52.4766" y1="35.9559" x2="52.4766" y2="78.251" gradientUnits="userSpaceOnUse">
<stop stop-color="#D75269"/>
<stop offset="1" stop-color="#F29273"/>
</linearGradient>
<linearGradient id="paint2_linear_11_892" x1="52.4766" y1="46.1429" x2="52.4766" y2="59.0366" gradientUnits="userSpaceOnUse">
<stop stop-color="#D75269"/>
<stop offset="1" stop-color="#F29273"/>
</linearGradient>
<linearGradient id="paint3_linear_11_892" x1="52.4767" y1="56.7262" x2="52.4767" y2="78.1985" gradientUnits="userSpaceOnUse">
<stop stop-color="#D75269"/>
<stop offset="1" stop-color="#F29273"/>
</linearGradient>
</defs>
</svg>
